PathFileType	4	(X/Y/Z)	 s02c0203.trc
DataRate	CameraRate	NumFrames	NumMarkers	Units	OrigDataRate	OrigDataStartFrame	OrigNumFrames
200	200	5	51	mm	200	251	2000
Frame#	Time	racr			lacr			c7			jug			rlel			rdr			llel			ldr			s2			lic			ric			lasi			rasi			rpsi			lpsi			rgt			lgt			rth1			rth2			rth3			rth4			rlfc			rmfc			rsh1			rsh2			rsh3			rsh4			rlmal			rmmal			rcal			rtoe			rmt5			rmt1			lth1			lth2			lth4			lth3			llfc			lmfc			lsh1			lsh2			lsh3			lsh4			llmal			lmmal			lcal			ltoe			lmt5			SBIKE			LBIKE			RBIKE			
		X1	Y1	Z1	X2	Y2	Z2	X3	Y3	Z3	X4	Y4	Z4	X5	Y5	Z5	X6	Y6	Z6	X7	Y7	Z7	X8	Y8	Z8	X9	Y9	Z9	X10	Y10	Z10	X11	Y11	Z11	X12	Y12	Z12	X13	Y13	Z13	X14	Y14	Z14	X15	Y15	Z15	X16	Y16	Z16	X17	Y17	Z17	X18	Y18	Z18	X19	Y19	Z19	X20	Y20	Z20	X21	Y21	Z21	X22	Y22	Z22	X23	Y23	Z23	X24	Y24	Z24	X25	Y25	Z25	X26	Y26	Z26	X27	Y27	Z27	X28	Y28	Z28	X29	Y29	Z29	X30	Y30	Z30	X31	Y31	Z31	X32	Y32	Z32	X33	Y33	Z33	X34	Y34	Z34	X35	Y35	Z35	X36	Y36	Z36	X37	Y37	Z37	X38	Y38	Z38	X39	Y39	Z39	X40	Y40	Z40	X41	Y41	Z41	X42	Y42	Z42	X43	Y43	Z43	X44	Y44	Z44	X45	Y45	Z45	X46	Y46	Z46	X47	Y47	Z47	X48	Y48	Z48	X49	Y49	Z49	X50	Y50	Z50	X51	Y51	Z51	
251	1.2550	472.589529	1286.560078	-113.169767	496.094583	1298.861606	-455.668075	496.157076	1314.883460	-289.550156	426.732455	1192.830272	-291.324148	539.705810	1031.927524	-45.816102	706.558469	892.471113	-113.750881	528.372884	1035.413915	-568.300984	701.774486	892.454783	-508.258048	-15.265982	1116.828816	-319.458353	NaN	NaN	NaN	106.902797	1112.361588	-169.385195	172.465206	1069.560948	-428.542290	159.184818	1094.036103	-204.743699	1.754009	1141.973035	-283.266651	12.656169	1148.839923	-367.102760	89.733059	1038.770576	-128.166488	75.590855	1012.055138	-491.423048	179.334705	1028.508944	-132.002502	266.894335	1022.564864	-141.802481	340.536776	983.824398	-119.655760	275.492506	1046.331672	-170.477096	465.982147	899.375855	-156.080374	455.949475	879.831727	-266.871221	448.626135	788.563282	-137.784428	428.252464	703.680457	-154.388695	374.790733	635.878296	-146.150936	439.370953	698.967377	-193.287842	310.670601	534.356186	-147.462092	318.329499	552.505316	-229.339733	234.056542	486.331188	-187.307543	519.921633	472.613796	-187.862620	412.270176	460.022735	-127.186045	437.770437	471.994889	-237.273000	178.080649	913.648764	-508.187518	244.783878	857.362644	-506.061270	271.430655	876.002154	-487.235549	272.607707	772.539358	-505.270417	325.630097	686.516173	-481.039252	328.733256	655.959193	-377.906617	286.587844	590.743899	-502.240460	267.356733	507.712659	-486.419839	207.128735	440.664694	-489.845224	285.468122	501.503387	-450.344698	147.088288	355.956001	-473.779914	162.715767	345.230184	-398.168119	71.721004	350.298742	-432.211553	284.667787	157.356659	-439.507835	188.445098	207.782297	-499.345379	-126.704939	871.515089	-308.750058	37.239434	86.445429	-514.230411	33.511984	83.430719	-114.487529	
252	1.2600	474.257477	1284.678002	-112.909786	497.890914	1297.722943	-454.465589	497.239472	1312.994957	-288.772599	427.534780	1191.078646	-290.776769	538.656805	1029.915867	-43.991470	706.093672	892.469162	-113.602204	527.936689	1034.438250	-567.936555	702.009837	892.558153	-508.302078	-15.106506	1117.640365	-319.289074	NaN	NaN	NaN	106.952659	1112.469171	-169.320243	172.426015	1069.488436	-428.572405	159.138205	1094.022185	-204.776087	1.985323	1142.547747	-283.312812	13.068302	1149.569774	-367.188526	89.647525	1038.883450	-128.205440	75.589216	1012.388372	-491.582455	179.262143	1028.259223	-131.997867	266.738557	1021.828187	-141.715559	340.135579	982.708525	-119.720724	275.457323	1045.788902	-170.358580	465.321382	897.872406	-156.427669	455.079002	878.407772	-267.123425	447.804915	787.022890	-138.125932	427.545102	702.313802	-154.608412	374.010001	634.390148	-146.526751	438.530691	697.468696	-193.597523	309.617657	532.938519	-147.755269	317.142889	551.036673	-229.688129	233.334555	484.202650	-187.462211	519.430462	473.327800	-187.811312	411.822113	459.781682	-127.181499	437.283140	471.965281	-237.276251	178.165458	913.852330	-508.038762	244.798450	857.608356	-505.960190	271.498895	876.308837	-487.348590	272.788482	772.890888	-505.578555	325.735678	686.893140	-481.081999	328.699116	656.328060	-377.976756	286.596762	591.169902	-502.316373	267.428205	508.122755	-486.552944	207.215501	441.070144	-489.901033	285.570095	501.970863	-450.485316	147.318644	356.188896	-473.932777	162.983322	345.503480	-398.264504	71.985055	350.659689	-432.289284	284.510812	157.238499	-439.540605	188.412239	207.833215	-499.330395	-126.700834	871.514120	-308.769533	37.247409	86.438480	-514.233664	33.506664	83.424537	-114.486284	
253	1.2650	475.984782	1282.730905	-112.641997	499.797370	1296.526769	-453.153563	498.393155	1311.064736	-287.919070	428.443781	1189.236038	-290.172144	537.774090	1027.972968	-42.268378	705.778525	892.339918	-113.291542	527.560276	1033.624265	-567.595074	702.121515	892.418884	-508.101097	-14.723363	1118.375970	-319.195835	NaN	NaN	NaN	107.032869	1112.570004	-169.306584	172.404393	1069.422526	-428.593623	159.111540	1093.978650	-204.801544	2.507079	1143.304521	-283.477353	13.417775	1150.273488	-367.227780	89.545996	1039.020349	-128.316188	75.572553	1012.710926	-491.752817	179.219427	1028.018662	-131.983493	266.491829	1020.915577	-141.472698	339.626134	981.480598	-119.759145	275.434255	1045.068700	-170.332671	464.457117	896.149832	-156.770415	454.095545	876.888341	-267.474003	446.959544	785.405725	-138.330421	426.743626	700.727399	-154.740677	373.087652	632.831249	-146.876950	437.478471	695.938945	-194.090733	308.429481	531.488397	-148.080199	315.775512	549.454605	-230.025576	232.499354	481.893224	-187.628073	518.803646	474.217523	-187.715000	411.296802	459.503642	-127.103438	436.721615	471.951011	-237.307049	178.309941	914.159766	-508.209989	244.994799	858.031713	-506.146531	271.627647	876.683333	-487.392151	273.053555	773.322401	-505.847156	325.877494	687.265779	-481.104271	328.725109	656.706531	-378.043870	286.700655	591.737182	-502.365762	267.563046	508.655767	-486.606151	207.321554	441.668277	-489.930482	285.714222	502.587838	-450.571327	147.579693	356.497613	-474.065442	163.217278	345.733948	-398.352367	72.259827	351.054659	-432.319803	284.352583	157.095173	-439.546535	188.382257	207.947565	-499.370561	-126.710286	871.503364	-308.789220	37.234773	86.439956	-514.246554	33.501756	83.436962	-114.493047	
254	1.2700	477.675646	1280.646773	-112.284411	501.723155	1295.311397	-451.648198	499.539119	1309.095116	-287.100511	429.320037	1187.403680	-289.609976	537.067017	1025.990484	-40.742838	705.550928	892.026321	-112.673204	527.177997	1032.539087	-567.376574	702.036509	892.266528	-507.701817	-14.038688	1118.974721	-319.207570	NaN	NaN	NaN	107.104059	1112.711711	-169.300161	172.410739	1069.342396	-428.656404	159.101436	1093.940948	-204.866549	2.778317	1143.963562	-283.529671	13.852331	1151.051575	-367.287000	89.394631	1039.248751	-128.448241	75.610511	1013.078348	-491.936894	179.177186	1027.721497	-131.941690	266.265981	1020.009965	-141.517431	339.062311	980.274086	-119.636968	275.435496	1044.266863	-170.235524	463.676131	894.293043	-156.997268	453.127576	875.356768	-267.564817	446.003642	783.587910	-138.549911	424.643673	698.237003	-156.421825	372.095344	630.981228	-147.098088	436.474833	694.093689	-194.362445	307.241260	529.787655	-148.364849	314.472666	547.636078	-230.353972	231.717763	479.469167	-187.685630	518.131236	475.052590	-187.636375	410.725944	459.191149	-127.040724	436.155904	471.934369	-237.313113	178.490350	914.575639	-508.427651	245.268448	858.488207	-506.315215	271.789590	877.169206	-487.380695	273.360375	773.821683	-506.093062	326.094301	687.767647	-481.036089	328.719359	657.117416	-377.998148	286.853411	592.412744	-502.358172	267.734582	509.344542	-486.623428	207.469180	442.265011	-490.016725	285.815685	503.148421	-450.541392	147.836758	356.807755	-474.168243	163.415329	346.126684	-398.403805	72.541209	351.485811	-432.344595	284.219450	156.977963	-439.575684	188.368387	208.046116	-499.358722	-126.699651	871.487758	-308.806407	37.227293	86.426939	-514.227086	33.928659	83.207638	-114.346452	
255	1.2750	479.357365	1278.485525	-111.833931	503.801630	1294.018802	-450.078421	500.711494	1307.023189	-286.175677	430.251448	1185.595819	-288.953316	536.505908	1023.953441	-39.312045	705.372195	891.646783	-111.985024	526.692449	1031.583105	-567.218767	701.861266	892.195957	-507.111713	-12.974616	1119.375710	-319.353212	NaN	NaN	NaN	107.238539	1112.843782	-169.307291	172.453084	1069.270482	-428.670950	159.109751	1093.891821	-204.899653	2.040113	1145.146922	-283.041289	14.350274	1151.920738	-367.445108	89.209433	1039.369521	-128.615250	75.734820	1013.322853	-492.282044	179.184530	1027.364204	-131.950293	266.134810	1019.123329	-141.630099	338.625413	978.923374	-119.660286	275.405373	1043.465875	-170.186567	462.711877	892.370048	-157.237740	452.070267	873.615150	-267.777108	445.051762	781.740210	-138.734623	423.597630	696.412220	-156.684512	370.990826	629.194177	-147.420026	434.751408	691.887874	-195.076061	305.998486	528.169803	-148.598797	313.167105	545.889774	-230.571398	230.858718	477.247442	-187.360785	517.483278	475.960066	-187.455473	410.269139	458.893328	-126.918033	435.538627	471.869065	-237.324084	178.688698	915.034958	-508.662690	245.634362	859.137006	-506.738446	271.982885	877.650871	-487.405543	273.731873	774.337988	-506.281194	326.343729	688.379644	-480.907177	328.780781	657.626329	-377.948595	287.008383	593.014330	-502.316500	267.947565	509.964344	-486.679412	207.660035	442.850505	-490.036043	285.973507	503.727844	-450.563969	148.067784	357.159367	-474.237281	163.620453	346.367660	-398.394936	72.848578	351.888939	-432.395567	284.085825	156.839890	-439.568389	188.338229	208.114628	-499.315327	-126.681634	871.484615	-308.845110	37.251815	86.425374	-514.239949	33.505440	83.416894	-114.490611	
